<svg width="18" height="18" viewBox="0 0 18 18" fill="none" xmlns="http://www.w3.org/2000/svg">
<path fill-rule="evenodd" clip-rule="evenodd" d="M13.0325 0H4.96724C2.22831 0 0 2.22841 0 4.96735V13.0327C0 15.7717 2.22831 18 4.96724 18H13.0325C15.7717 18 18 15.7716 18 13.0327V4.96735C18.0001 2.22841 15.7717 0 13.0325 0ZM16.4031 13.0328C16.4031 14.8912 14.8911 16.4031 13.0326 16.4031H4.96724C3.10892 16.4032 1.59705 14.8912 1.59705 13.0328V4.96747C1.59705 3.10915 3.10892 1.59717 4.96724 1.59717H13.0325C14.891 1.59717 16.403 3.10915 16.403 4.96747V13.0328H16.4031ZM4.28571 9.00011C4.28571 6.40055 6.4005 4.28571 9 4.28571C11.5995 4.28571 13.7143 6.40055 13.7143 9.00011C13.7143 11.5996 11.5995 13.7143 9 13.7143C6.4005 13.7143 4.28571 11.5996 4.28571 9.00011ZM8.99996 12.0907C7.29564 12.0907 5.90894 10.7041 5.90894 8.99978C5.90894 7.29532 7.29553 5.90869 8.99996 5.90869C10.7044 5.90869 12.091 7.29532 12.091 8.99978C12.091 10.7041 10.7043 12.0907 8.99996 12.0907Z" fill="white"/>
</svg>
