<svg width="18" height="18" viewBox="0 0 18 18" fill="none" xmlns="http://www.w3.org/2000/svg">
<path d="M9 0.0625C4.07148 0.0625 0.0625 4.07148 0.0625 9C0.0625 13.9285 4.07148 17.9375 9 17.9375C13.9285 17.9375 17.9375 13.9285 17.9375 9C17.9375 4.07148 13.9285 0.0625 9 0.0625ZM14.9104 4.1832C15.9738 5.48301 16.6184 7.1373 16.6334 8.93984C16.382 8.88613 13.8576 8.3748 11.3182 8.69492C11.2645 8.56387 11.2107 8.43281 11.1549 8.30176C10.9959 7.93008 10.8262 7.5584 10.6479 7.19531C13.4688 6.0416 14.7492 4.40234 14.9104 4.1832ZM9 1.37734C10.94 1.37734 12.7125 2.10566 14.0596 3.3002C13.9221 3.4957 12.7727 5.04043 10.0592 6.05879C8.80879 3.75996 7.42305 1.87363 7.21035 1.59004C7.79688 1.44824 8.39629 1.37734 9 1.37734ZM5.75371 2.10352C5.95566 2.37852 7.31992 4.27129 8.5832 6.51855C5.0125 7.46602 1.86719 7.45312 1.52559 7.44883C2.02188 5.0791 3.61816 3.11113 5.75371 2.10352ZM1.3666 9.01074C1.3666 8.9334 1.36875 8.85391 1.3709 8.77656C1.70391 8.78301 5.40351 8.83027 9.21699 7.68945C9.43613 8.11699 9.64453 8.55098 9.83574 8.98496C9.73477 9.01289 9.63379 9.04297 9.53496 9.0752C5.59688 10.3514 3.50215 13.8211 3.32812 14.1154C2.10996 12.7619 1.3666 10.9723 1.3666 9.01074ZM9 16.6441C7.23398 16.6441 5.60762 16.0426 4.31426 15.0328C4.45176 14.7514 5.99648 11.7672 10.302 10.2654L10.3514 10.2482C11.4234 13.0326 11.866 15.368 11.9799 16.0383C11.0381 16.4408 10.0242 16.647 9 16.6441ZM13.2646 15.34C13.1873 14.876 12.7812 12.6416 11.7822 9.89805C14.1756 9.51562 16.2768 10.143 16.5367 10.2246C16.1973 12.3473 14.9791 14.182 13.2646 15.34Z" fill="white"/>
</svg>
