<svg width="277" height="32" viewBox="0 0 277 32" fill="none" xmlns="http://www.w3.org/2000/svg">
<path d="M48.7119 25.4915C52.8983 25.4915 55.8729 23.2881 55.8729 19.5699C55.8729 15.4936 52.5953 14.4746 49.6758 13.5932C46.6737 12.6843 46.2055 12.0784 46.2055 11.197C46.2055 10.4258 46.8941 9.73729 48.2712 9.73729C50.0339 9.73729 50.9428 10.5911 51.6038 11.9682L55.322 9.79237C53.9174 6.95551 51.4386 5.44068 48.2712 5.44068C44.9386 5.44068 41.7987 7.58898 41.7987 11.3072C41.7987 14.9979 44.6081 16.375 47.4725 17.1737C50.3644 17.9725 51.4661 18.4407 51.4661 19.625C51.4661 20.3686 50.9428 21.1949 48.8496 21.1949C46.6737 21.1949 45.4894 20.1208 44.8008 18.5233L41 20.7267C42.0742 23.5636 44.6631 25.4915 48.7119 25.4915Z" fill="#1A1A1F"/>
<path d="M59.1769 10.1229C60.5265 10.1229 61.6557 8.99364 61.6557 7.64407C61.6557 6.29449 60.5265 5.16525 59.1769 5.16525C57.8273 5.16525 56.6981 6.29449 56.6981 7.64407C56.6981 8.99364 57.8273 10.1229 59.1769 10.1229ZM57.1112 25.1059H61.2426V11.3347H57.1112V25.1059Z" fill="#1A1A1F"/>
<path d="M78.8632 10.9492C76.9077 10.9492 75.6408 11.6653 74.8696 12.7669C74.0984 11.6102 72.8865 10.9492 71.2615 10.9492C69.4162 10.9492 68.2043 11.6653 67.5709 12.6017V11.3347H63.4395V25.1059H67.5709V17.339C67.5709 15.714 68.342 14.75 69.7192 14.75C71.0412 14.75 71.7022 15.6314 71.7022 17.0085V25.1059H75.8336V17.339C75.8336 15.714 76.6048 14.75 77.9819 14.75C79.3039 14.75 79.9649 15.6314 79.9649 17.0085V25.1059H84.0963V16.6504C84.0963 13.2076 82.0306 10.9492 78.8632 10.9492Z" fill="#1A1A1F"/>
<path d="M94.3293 10.9492C92.484 10.9492 91.1344 11.5826 90.2255 12.6292V11.3347H86.0942V30.6144H90.2255V23.8114C91.1344 24.858 92.484 25.4915 94.3293 25.4915C97.9374 25.4915 100.912 22.3242 100.912 18.2203C100.912 14.1165 97.9374 10.9492 94.3293 10.9492ZM93.5031 21.5805C91.6027 21.5805 90.2255 20.286 90.2255 18.2203C90.2255 16.1547 91.6027 14.8602 93.5031 14.8602C95.4035 14.8602 96.7806 16.1547 96.7806 18.2203C96.7806 20.286 95.4035 21.5805 93.5031 21.5805Z" fill="#1A1A1F"/>
<path d="M102.428 25.1059H106.559V5H102.428V25.1059Z" fill="#1A1A1F"/>
<path d="M112.447 19.8729H122.225C122.335 19.3496 122.39 18.7987 122.39 18.2203C122.39 14.0614 119.415 10.9492 115.394 10.9492C111.042 10.9492 108.068 14.1165 108.068 18.2203C108.068 22.3242 110.987 25.4915 115.697 25.4915C118.314 25.4915 120.352 24.5275 121.701 22.6547L118.396 20.7542C117.845 21.3602 116.881 21.8008 115.752 21.8008C114.237 21.8008 112.97 21.3051 112.447 19.8729ZM112.364 16.7881C112.75 15.3835 113.797 14.6123 115.367 14.6123C116.606 14.6123 117.845 15.1907 118.286 16.7881H112.364Z" fill="#1A1A1F"/>
<path d="M143.324 5.82627H138.917L133.684 14.3919L128.451 5.82627H124.045V25.1059H128.451V13.8962L133.437 22.0763H133.932L138.917 13.8962V25.1059H143.324V5.82627Z" fill="#1A1A1F"/>
<path d="M155.672 11.3347V12.6292C154.763 11.5826 153.413 10.9492 151.568 10.9492C147.96 10.9492 144.985 14.1165 144.985 18.2203C144.985 22.3242 147.96 25.4915 151.568 25.4915C153.413 25.4915 154.763 24.858 155.672 23.8114V25.1059H159.803V11.3347H155.672ZM152.394 21.5805C150.494 21.5805 149.117 20.286 149.117 18.2203C149.117 16.1547 150.494 14.8602 152.394 14.8602C154.295 14.8602 155.672 16.1547 155.672 18.2203C155.672 20.286 154.295 21.5805 152.394 21.5805Z" fill="#1A1A1F"/>
<path d="M166.139 13.786V11.3347H162.008V25.1059H166.139V18.8814C166.139 16.1547 168.563 15.4661 170.271 15.7415V11.0593C168.535 11.0593 166.69 11.9407 166.139 13.786Z" fill="#1A1A1F"/>
<path d="M184.596 25.1059L179.445 18.2203L184.458 11.3347H179.638L175.507 17.3665V5.82627H171.375V25.1059H175.507V19.0191L179.914 25.1059H184.596Z" fill="#1A1A1F"/>
<path d="M188.146 19.8729H197.923C198.033 19.3496 198.088 18.7987 198.088 18.2203C198.088 14.0614 195.114 10.9492 191.093 10.9492C186.741 10.9492 183.766 14.1165 183.766 18.2203C183.766 22.3242 186.686 25.4915 191.396 25.4915C194.012 25.4915 196.05 24.5275 197.4 22.6547L194.095 20.7542C193.544 21.3602 192.58 21.8008 191.451 21.8008C189.936 21.8008 188.669 21.3051 188.146 19.8729ZM188.063 16.7881C188.449 15.3835 189.495 14.6123 191.065 14.6123C192.304 14.6123 193.544 15.1907 193.985 16.7881H188.063Z" fill="#1A1A1F"/>
<path d="M207.272 15.3008V11.3347H204.435V7.47881L200.304 8.71822V11.3347H198.1V15.3008H200.304V20.1758C200.304 24.0318 201.873 25.6568 207.272 25.1059V21.3602C205.454 21.4703 204.435 21.3602 204.435 20.1758V15.3008H207.272Z" fill="#1A1A1F"/>
<path d="M210.85 10.1229C212.2 10.1229 213.329 8.99364 213.329 7.64407C213.329 6.29449 212.2 5.16525 210.85 5.16525C209.501 5.16525 208.372 6.29449 208.372 7.64407C208.372 8.99364 209.501 10.1229 210.85 10.1229ZM208.785 25.1059H212.916V11.3347H208.785V25.1059Z" fill="#1A1A1F"/>
<path d="M223.183 10.9492C221.365 10.9492 219.988 11.6102 219.244 12.6292V11.3347H215.113V25.1059H219.244V17.5869C219.244 15.6314 220.291 14.75 221.806 14.75C223.128 14.75 224.202 15.5487 224.202 17.2564V25.1059H228.333V16.6504C228.333 12.9322 225.965 10.9492 223.183 10.9492Z" fill="#1A1A1F"/>
<path d="M240.452 11.3347V12.7394C239.543 11.6102 238.221 10.9492 236.431 10.9492C232.52 10.9492 229.656 14.1441 229.656 17.9449C229.656 21.7458 232.52 24.9407 236.431 24.9407C238.221 24.9407 239.543 24.2797 240.452 23.1504V24.4174C240.452 26.3729 239.268 27.3644 237.34 27.3644C235.522 27.3644 234.723 26.5932 234.2 25.6292L230.675 27.6674C231.942 29.9258 234.338 31 237.202 31C240.865 31 244.473 29.0445 244.473 24.4174V11.3347H240.452ZM237.12 21.1398C235.164 21.1398 233.787 19.8453 233.787 17.9449C233.787 16.0445 235.164 14.75 237.12 14.75C239.075 14.75 240.452 16.0445 240.452 17.9449C240.452 19.8453 239.075 21.1398 237.12 21.1398Z" fill="#1A1A1F"/>
<path d="M260.862 25.1059L251.333 15.1907L260.587 5.82627H258.053L249.295 14.6398V5.82627H247.367V25.1059H249.295V15.7691L258.328 25.1059H260.862Z" fill="#1A1A1F"/>
<path d="M274.911 5.82627V14.2818H264.445V5.82627H262.517V25.1059H264.445V16.0996H274.911V25.1059H276.839V5.82627H274.911Z" fill="#1A1A1F"/>
<path d="M20.5919 1.47454C21.1631 0.527242 22.0903 0.169096 22.9379 0.519074C24.0104 0.97071 24.4319 1.80361 24.0763 2.93587C23.9563 3.32717 24.0115 3.58663 24.2233 3.88085C26.4131 6.7131 28.6029 9.54535 30.7825 12.3933C31.0258 12.708 31.3177 12.7414 31.667 12.7897C32.3082 12.8714 32.8009 13.1471 32.9241 13.8531C33.0473 14.5591 32.7574 15.1082 32.1259 15.3904C31.5306 15.6515 31.2501 16.1173 31.0176 16.6814C29.7698 19.7368 28.4802 22.7875 27.2008 25.8225C26.9935 26.3135 26.8947 26.741 27.1507 27.2428C27.4548 27.8429 27.3892 28.426 26.8687 28.8475C26.338 29.2847 25.7244 29.3328 25.1364 28.9281C24.6429 28.5848 24.1166 28.5331 23.54 28.6275C20.6666 29.0164 17.7773 29.3951 14.9085 29.7424C14.2745 29.8218 13.8341 29.9824 13.6033 30.6817C13.3223 31.5272 12.5933 31.9249 11.676 31.82C10.8105 31.7043 10.0461 30.9166 10.0454 30.0221C10.0354 29.2109 9.68964 28.606 9.22429 28.0128C7.47389 25.7792 5.76989 23.5088 4.02971 21.2595C3.48482 20.5475 2.98715 19.8662 1.87319 19.8571C0.977943 19.8561 0.340273 19.2178 0.18775 18.2469C0.041588 17.3695 0.50046 16.595 1.44814 16.2055C2.12134 15.928 2.60566 15.5277 2.87814 14.8331C4.00978 12.0598 5.14141 9.28636 6.30453 6.53345C6.57785 5.90651 6.66395 5.29193 6.44242 4.63376C6.22642 4.00154 6.43292 3.44291 6.98019 3.08354C7.50152 2.72964 8.10571 2.76493 8.55835 3.17104C9.12669 3.67476 9.76154 3.66292 10.4002 3.54182C13.3704 2.96988 16.3808 2.71475 19.3628 2.26229C19.9292 2.18356 20.4483 2.07412 20.5919 1.47454ZM18.1174 16.4731C19.9571 17.0884 21.9747 17.7745 24.0229 18.4136C24.373 18.5295 24.7922 18.3327 24.7651 17.8233C24.6931 16.2119 24.611 14.6162 24.5288 13.0204C24.4779 12.272 24.1065 12.1199 23.4545 12.4336C23.0613 12.6249 22.6737 12.8422 22.2962 13.0438C20.9153 13.7551 19.5131 14.4303 18.1479 15.1518C17.3773 15.5447 17.3304 15.9613 18.1174 16.4731ZM23.6881 19.9617C24.2124 19.4309 24.1052 19.1824 23.6717 19.0569C21.7439 18.4738 19.8263 17.875 17.8734 17.365C16.9803 17.1195 16.4764 17.6188 16.7004 18.4798C17.0886 19.9839 17.5907 21.4505 18.2589 22.8684C18.5102 23.4119 18.9918 23.6357 19.4816 23.2613C20.9669 22.1484 22.4151 20.9891 23.6881 19.9617ZM14.5819 7.51298C12.9656 6.8642 11.2076 6.1233 9.44498 5.42405C8.52981 5.07478 8.29787 5.25923 8.45039 6.23016C8.68194 7.69952 8.92923 9.17912 9.21269 10.6375C9.45747 11.9143 9.9076 12.1177 11.0022 11.3989C12.2618 10.564 13.5105 9.67726 14.7331 8.79596C15.3676 8.33686 15.3477 7.98862 14.5819 7.51298ZM10.0231 21.8937C10.2362 23.9769 11.0447 25.7991 11.6195 27.6705C11.7874 28.2044 12.963 28.5666 13.4167 28.2134C14.453 27.412 15.4578 26.5902 16.457 25.7425C17.2141 25.0949 17.1045 24.6435 16.168 24.2581C14.9491 23.756 13.7506 23.2225 12.527 22.762C11.7424 22.453 10.9869 21.9616 10.0231 21.8937ZM23.057 11.0128C21.4667 10.3585 19.9282 9.69332 18.3647 9.1012C17.6116 8.81264 16.9762 9.20414 16.8297 9.98057C16.6141 11.0698 16.4041 12.1849 16.3136 13.2884C16.2287 14.4178 16.8268 14.8068 17.8358 14.323C19.5691 13.4832 21.2811 12.6071 22.9986 11.7571C23.4641 11.5234 23.4923 11.2734 23.057 11.0128ZM9.7652 4.38057C9.74008 4.45364 9.72048 4.55266 9.69536 4.62573C11.1079 5.20903 12.5204 5.79232 13.907 6.38109C14.6813 6.70583 15.436 7.12959 16.2553 6.45534C16.3944 6.34467 16.691 6.33636 16.8948 6.40184C17.4173 6.56279 17.8309 6.34004 18.165 5.9985C18.9 5.24711 19.6138 4.45955 20.3275 3.67198C20.4612 3.53536 20.605 3.38304 20.4672 3.18166C20.3451 2.99051 20.1273 3.05 19.9558 3.07259C19.2124 3.14798 18.4746 3.24931 17.721 3.34041C15.0654 3.66983 12.4153 4.0252 9.7652 4.38057ZM15.1819 18.1628C14.5476 17.795 13.8821 17.854 13.3301 18.255C12.4479 18.8883 11.624 19.6042 10.7843 20.3099C10.4289 20.6153 10.3552 20.9697 10.8471 21.1778C12.8144 22.0101 14.8076 22.837 16.8056 23.6221C17.1928 23.7845 17.5247 23.6874 17.3669 23.1378C16.9324 21.6706 16.472 20.2088 15.8251 18.827C15.6762 18.5737 15.4597 18.3212 15.1819 18.1628ZM18.4095 6.82805C17.9685 7.36833 17.9446 7.95625 18.5883 8.24075C20.1378 8.95783 21.7226 9.58613 23.3232 10.2247C23.7993 10.4225 24.0516 10.2066 23.9254 9.6775C23.4671 7.97128 23.019 6.24935 22.5088 4.55407C22.3298 3.96827 21.4266 3.73849 20.9997 4.15381C20.0996 5.02134 19.2624 5.92981 18.4095 6.82805ZM20.3216 25.104C21.7026 25.6668 23.0632 26.261 24.4749 26.7767C25.0761 26.9889 25.4361 26.6418 25.3916 25.987C25.2661 24.2513 25.1405 22.5156 25.0409 20.7744C25.0075 20.1715 24.7211 20.1641 24.3398 20.4749C22.9639 21.5919 21.5825 22.6829 20.2121 23.8257C19.6916 24.2472 19.6557 24.7157 20.3216 25.104ZM7.53741 5.63644C7.10315 6.71752 6.76468 7.54796 6.42621 8.37841C5.40444 10.7762 4.37246 13.1897 3.35069 15.5875C3.24937 15.8122 3.0757 16.0792 3.28117 16.2799C3.49216 16.5065 3.75475 16.275 3.94583 16.1533C4.55523 15.7673 5.13316 15.3608 5.72682 14.9646C6.59965 14.4146 7.5835 14.0038 7.44724 12.6635C7.41241 12.3726 7.67333 12.0058 7.87848 11.7592C8.299 11.2504 8.35997 10.7089 8.26906 10.0909C8.06983 8.70965 7.8289 7.3236 7.53741 5.63644ZM3.74426 19.2186C3.69318 19.2972 3.65232 19.36 3.60124 19.4386C5.92332 22.4462 8.2454 25.4539 10.6045 28.508C10.8654 28.1413 10.8212 27.9337 10.7613 27.7159C10.2511 26.0206 9.83917 24.2775 9.18898 22.6253C8.93045 21.9207 8.32811 21.1937 7.69378 20.8259C6.48808 20.1312 5.12363 19.6463 3.74426 19.2186ZM4.68474 18.6679C5.57395 19.0227 6.72992 19.4838 7.86546 19.9764C8.55087 20.2657 8.80241 19.9822 8.75789 19.3274C8.631 17.9037 8.55603 16.4691 8.59041 15.0386C8.60718 14.2895 8.20595 14.2521 7.7208 14.5848C6.57986 15.3405 5.45466 16.1063 4.35072 16.9084C3.59277 17.4884 3.64584 17.9923 4.68474 18.6679ZM29.5444 13.7116C28.5033 13.2805 27.2159 12.7115 25.9033 12.2155C25.4745 12.0484 25.2489 12.3264 25.2752 12.7682C25.3888 14.3844 25.5284 15.9951 25.6421 17.6113C25.6667 17.9179 25.7385 18.2552 26.1198 17.9444C27.4242 16.9374 28.6971 15.91 29.9386 14.862C30.3922 14.5089 30.3298 14.0883 29.5444 13.7116ZM26.1827 25.5627C26.2559 25.5879 26.3133 25.6029 26.3865 25.6282C27.7459 22.3323 29.1053 19.0365 30.5762 15.5003C29.1948 16.5912 27.9351 17.4261 26.8967 18.4719C26.3723 19.0027 25.9253 19.8967 25.9086 20.6457C25.8452 22.2586 26.0895 23.9151 26.1827 25.5627ZM13.919 28.853C13.9458 28.9151 13.9726 28.9773 13.9994 29.0394C17.3614 28.5882 20.7289 28.1629 24.0909 27.7116C23.2251 27.1486 22.3776 26.7987 21.5041 26.4542C20.5732 26.0946 19.6956 25.4121 18.638 26.1773C18.4831 26.2777 18.1589 26.1563 17.919 26.112C17.7049 26.0622 17.5114 25.9811 17.2998 26.1341C16.1661 27.0509 15.0426 27.9519 13.919 28.853ZM15.2077 13.508C15.6994 12.4419 15.7457 11.1309 15.9587 9.83887C15.9877 9.65654 16.0371 9.4428 15.8844 9.29877C15.6687 9.11381 15.4683 9.31873 15.3031 9.43487C13.8477 10.433 12.3978 11.4571 10.9479 12.4812C10.3338 12.9089 10.4898 13.3233 11.0399 13.614C11.7104 13.9606 12.3911 14.2916 13.1119 14.492C13.9633 14.7328 14.6301 14.3617 15.2077 13.508ZM23.2536 4.16663C23.7331 5.90904 24.1969 7.6412 24.7024 9.37813C24.9902 10.3476 25.7436 11.0835 26.5252 11.5693C27.616 12.234 28.8954 12.5743 30.1875 13.1016C28.0037 9.91566 25.5693 7.08078 23.2536 4.16663ZM12.3595 15.098C11.9093 14.8947 11.3175 14.5992 10.7108 14.3611C10.0624 14.1183 9.55435 14.2796 9.5431 15.0546C9.52529 16.563 9.54366 18.0502 9.59351 19.5579C9.61124 20.1506 10.0138 19.8759 10.2356 19.7072C11.0603 19.0589 11.8796 18.3846 12.6831 17.7001C13.6257 16.905 13.5503 15.85 12.3595 15.098Z" fill="#1A1A1F"/>
</svg>
