<svg width="246" height="26" viewBox="0 0 246 26" fill="none" xmlns="http://www.w3.org/2000/svg">
<path d="M7.85217 20.509C12.1901 20.509 15.1552 18.3126 15.1552 14.4963C15.1552 10.4604 11.9979 9.3622 9.03273 8.48363C6.4245 7.71489 5.73812 7.24815 5.73812 6.39704C5.73812 5.71067 6.31468 5.13411 7.5227 5.13411C8.92291 5.13411 9.9113 5.84794 10.5153 7.27561L14.6336 4.85956C13.2883 1.97677 10.68 0.466738 7.49525 0.466738C3.76135 0.466738 0.823654 2.82788 0.823654 6.4245C0.823654 10.0211 3.51426 11.5586 6.53432 12.4372C8.97783 13.1235 10.2408 13.453 10.2408 14.5512C10.2408 15.2101 9.71911 15.8416 7.98944 15.8416C6.06758 15.8416 4.88701 14.9356 4.20063 13.2883L0 15.7318C1.01584 18.5597 3.67899 20.509 7.85217 20.509Z" fill="#1A1A1F"/>
<path d="M18.8881 5.24393C20.3157 5.24393 21.5237 4.0359 21.5237 2.60824C21.5237 1.18057 20.3157 0 18.8881 0C17.4604 0 16.2524 1.18057 16.2524 2.60824C16.2524 4.0359 17.4604 5.24393 18.8881 5.24393ZM16.6093 20.0971H21.1668V6.36959H16.6093V20.0971Z" fill="#1A1A1F"/>
<path d="M39.2795 5.98522C37.3851 5.98522 36.1496 6.69905 35.2985 7.74234C34.5572 6.61668 33.4041 5.98522 31.7842 5.98522C30.0271 5.98522 28.8191 6.67159 28.0778 7.65998V6.36959H23.5202V20.0971H28.0778V12.6019C28.0778 11.2291 28.7093 10.2957 29.9722 10.2957C31.1253 10.2957 31.7019 11.037 31.7019 12.2175V20.0971H36.2594V12.6019C36.2594 11.2291 36.8634 10.2957 38.1538 10.2957C39.3069 10.2957 39.856 11.037 39.856 12.2175V20.0971H44.441V11.6959C44.441 8.12672 42.4368 5.98522 39.2795 5.98522Z" fill="#1A1A1F"/>
<path d="M55.0816 5.98522C53.3245 5.98522 52.0616 6.58923 51.183 7.63252V6.36959H46.6254V25.5882H51.183V18.8342C52.0616 19.8775 53.3245 20.4815 55.0816 20.4815C58.7606 20.4815 61.5336 17.3516 61.5336 13.2334C61.5336 9.1151 58.7606 5.98522 55.0816 5.98522ZM54.0658 16.226C52.3636 16.226 51.183 15.018 51.183 13.2334C51.183 11.4488 52.3636 10.2408 54.0658 10.2408C55.768 10.2408 56.9486 11.4488 56.9486 13.2334C56.9486 15.018 55.768 16.226 54.0658 16.226Z" fill="#1A1A1F"/>
<path d="M63.2422 20.0971H67.7998V0.0549112H63.2422V20.0971Z" fill="#1A1A1F"/>
<path d="M74.1897 14.9081H83.6618C83.799 14.3316 83.8539 13.7825 83.8539 13.2059C83.8539 9.08765 80.8888 5.98522 76.7705 5.98522C72.4875 5.98522 69.4675 9.14256 69.4675 13.2608C69.4675 17.3242 72.4052 20.4815 77.1549 20.4815C79.5984 20.4815 81.685 19.6579 83.0577 17.9282L79.7631 15.622C79.1042 16.2534 78.2531 16.5829 77.2647 16.5829C75.9469 16.5829 74.7388 16.226 74.1897 14.9081ZM74.1348 11.7508C74.5192 10.4879 75.5076 9.82893 76.8254 9.82893C77.9236 9.82893 78.9944 10.3231 79.4062 11.7508H74.1348Z" fill="#1A1A1F"/>
<path d="M105.332 0.878564H100.445L95.5303 9.08765L90.6433 0.878564H85.7288V20.0971H90.6433V9.77402L95.2832 17.4615H95.7774L100.445 9.74657V20.0971H105.332V0.878564Z" fill="#1A1A1F"/>
<path d="M117.61 6.36959V7.63252C116.731 6.58923 115.468 5.98522 113.711 5.98522C110.032 5.98522 107.259 9.1151 107.259 13.2334C107.259 17.3516 110.032 20.4815 113.711 20.4815C115.468 20.4815 116.731 19.8775 117.61 18.8342V20.0971H122.167V6.36959H117.61ZM114.727 16.226C113.025 16.226 111.844 15.018 111.844 13.2334C111.844 11.4488 113.025 10.2408 114.727 10.2408C116.429 10.2408 117.61 11.4488 117.61 13.2334C117.61 15.018 116.429 16.226 114.727 16.226Z" fill="#1A1A1F"/>
<path d="M129.092 8.92292V6.36959H124.535V20.0971H129.092V14.4139C129.092 11.6959 131.398 10.8722 133.211 11.1468V6.09504C131.371 6.09504 129.641 7.05597 129.092 8.92292Z" fill="#1A1A1F"/>
<path d="M148.226 20.0971L143.421 13.2334L148.034 6.36959H142.762L139.221 12.1077V0.878564H134.663V20.0971H139.221V14.2492L143.119 20.0971H148.226Z" fill="#1A1A1F"/>
<path d="M152.448 14.9081H161.92C162.057 14.3316 162.112 13.7825 162.112 13.2059C162.112 9.08765 159.147 5.98522 155.028 5.98522C150.745 5.98522 147.725 9.14256 147.725 13.2608C147.725 17.3242 150.663 20.4815 155.413 20.4815C157.856 20.4815 159.943 19.6579 161.316 17.9282L158.021 15.622C157.362 16.2534 156.511 16.5829 155.523 16.5829C154.205 16.5829 152.997 16.226 152.448 14.9081ZM152.393 11.7508C152.777 10.4879 153.765 9.82893 155.083 9.82893C156.181 9.82893 157.252 10.3231 157.664 11.7508H152.393Z" fill="#1A1A1F"/>
<path d="M171.957 10.735V6.36959H169.102V2.52587L164.544 3.89863V6.36959H162.485V10.735H164.544V14.8258C164.544 19.0539 166.356 20.7835 171.957 20.0971V15.9789C170.117 16.0887 169.102 16.0063 169.102 14.7159V10.735H171.957Z" fill="#1A1A1F"/>
<path d="M176.068 5.24393C177.495 5.24393 178.703 4.0359 178.703 2.60824C178.703 1.18057 177.495 0 176.068 0C174.64 0 173.432 1.18057 173.432 2.60824C173.432 4.0359 174.64 5.24393 176.068 5.24393ZM173.789 20.0971H178.346V6.36959H173.789V20.0971Z" fill="#1A1A1F"/>
<path d="M189.074 5.98522C187.371 5.98522 186.026 6.64414 185.257 7.74234V6.36959H180.7V20.0971H185.257V12.7941C185.257 11.1468 186.108 10.2957 187.509 10.2957C188.689 10.2957 189.568 10.982 189.568 12.4646V20.0971H194.125V11.8881C194.125 7.93453 191.901 5.98522 189.074 5.98522Z" fill="#1A1A1F"/>
<path d="M206.127 6.36959V7.68743C205.248 6.61668 203.985 5.98522 202.283 5.98522C198.467 5.98522 195.749 9.14256 195.749 12.9588C195.749 16.7751 198.467 19.9324 202.283 19.9324C203.985 19.9324 205.248 19.301 206.127 18.2302V19.548C206.127 21.2503 204.891 22.019 203.354 22.019C201.871 22.019 201.047 21.415 200.443 20.4541L196.655 22.6505C197.89 24.8743 200.416 26 203.409 26C207.005 26 210.629 24.1331 210.629 19.548V6.36959H206.127ZM203.216 15.8141C201.487 15.8141 200.306 14.6061 200.306 12.9588C200.306 11.3115 201.487 10.1035 203.216 10.1035C204.946 10.1035 206.127 11.3115 206.127 12.9588C206.127 14.6061 204.946 15.8141 203.216 15.8141Z" fill="#1A1A1F"/>
<path d="M229.111 20.0971L222.741 10.2133L228.837 0.878564H223.345L218.102 8.95037V0.878564H213.187V20.0971H218.102V11.5037L223.62 20.0971H229.111Z" fill="#1A1A1F"/>
<path d="M240.556 0.878564V7.98944H235.147V0.878564H230.233V20.0971H235.147V12.7117H240.556V20.0971H245.443V0.878564H240.556Z" fill="#1A1A1F"/>
</svg>
